<svg width="1600" height="252" viewBox="0 0 1600 252" fill="none" xmlns="http://www.w3.org/2000/svg">
<rect width="1600" height="252" fill="#2F303A"/>
<path d="M223.294 66.592H226.596L228.676 72.702L230.756 66.592H234.084L230.938 74.99L233.278 80.892L238.504 66.54H242.404L234.89 85H231.874L228.676 77.252L225.478 85H222.462L215 66.54H218.848L224.1 80.892L226.388 74.99L223.294 66.592ZM249.379 85.26C248.287 85.26 247.299 85.078 246.415 84.714C245.531 84.3327 244.777 83.8213 244.153 83.18C243.529 82.5387 243.044 81.7933 242.697 80.944C242.368 80.0947 242.203 79.202 242.203 78.266C242.203 77.2953 242.368 76.3853 242.697 75.536C243.027 74.6693 243.503 73.9153 244.127 73.274C244.751 72.6153 245.505 72.0953 246.389 71.714C247.291 71.3327 248.296 71.142 249.405 71.142C250.515 71.142 251.503 71.3327 252.369 71.714C253.253 72.0953 253.999 72.6067 254.605 73.248C255.229 73.8893 255.697 74.6347 256.009 75.484C256.339 76.3333 256.503 77.2173 256.503 78.136C256.503 78.3613 256.495 78.578 256.477 78.786C256.477 78.994 256.46 79.1673 256.425 79.306H245.895C245.947 79.8433 246.077 80.32 246.285 80.736C246.493 81.152 246.762 81.5073 247.091 81.802C247.421 82.0967 247.793 82.322 248.209 82.478C248.625 82.634 249.059 82.712 249.509 82.712C250.203 82.712 250.853 82.5473 251.459 82.218C252.083 81.8713 252.508 81.4207 252.733 80.866L255.723 81.698C255.221 82.738 254.415 83.596 253.305 84.272C252.213 84.9307 250.905 85.26 249.379 85.26ZM252.915 77.044C252.829 76.0213 252.447 75.2067 251.771 74.6C251.113 73.976 250.307 73.664 249.353 73.664C248.885 73.664 248.443 73.7507 248.027 73.924C247.629 74.08 247.273 74.3053 246.961 74.6C246.649 74.8947 246.389 75.25 246.181 75.666C245.991 76.082 245.878 76.5413 245.843 77.044H252.915ZM267.154 85.26C266.114 85.26 265.186 85.026 264.372 84.558C263.557 84.09 262.916 83.4487 262.448 82.634V85H259.406V66.02H262.89V73.768C263.375 72.936 264.008 72.2947 264.788 71.844C265.585 71.376 266.512 71.142 267.57 71.142C268.454 71.142 269.26 71.3327 269.988 71.714C270.716 72.0953 271.34 72.6067 271.86 73.248C272.397 73.8893 272.804 74.6433 273.082 75.51C273.376 76.3767 273.524 77.2867 273.524 78.24C273.524 79.228 273.359 80.1467 273.03 80.996C272.718 81.8453 272.276 82.5907 271.704 83.232C271.132 83.856 270.456 84.35 269.676 84.714C268.896 85.078 268.055 85.26 267.154 85.26ZM266.192 82.296C266.746 82.296 267.258 82.192 267.726 81.984C268.194 81.7587 268.592 81.464 268.922 81.1C269.251 80.736 269.502 80.3113 269.676 79.826C269.866 79.3407 269.962 78.8207 269.962 78.266C269.962 77.7113 269.875 77.1827 269.702 76.68C269.528 76.1773 269.277 75.7353 268.948 75.354C268.636 74.9727 268.263 74.6693 267.83 74.444C267.396 74.2187 266.92 74.106 266.4 74.106C265.62 74.106 264.918 74.366 264.294 74.886C263.687 75.3887 263.219 76.0127 262.89 76.758V80.008C263.011 80.3547 263.184 80.6667 263.41 80.944C263.652 81.2213 263.921 81.464 264.216 81.672C264.51 81.8627 264.831 82.0187 265.178 82.14C265.524 82.244 265.862 82.296 266.192 82.296Z" fill="#2196F3"/>
<path d="M288 71.376C287.879 71.2547 287.654 71.09 287.324 70.882C287.012 70.674 286.622 70.4747 286.154 70.284C285.704 70.076 285.21 69.9027 284.672 69.764C284.135 69.6253 283.589 69.556 283.034 69.556C282.046 69.556 281.31 69.738 280.824 70.102C280.339 70.466 280.096 70.9773 280.096 71.636C280.096 72.0173 280.183 72.338 280.356 72.598C280.547 72.8407 280.816 73.0573 281.162 73.248C281.509 73.4387 281.942 73.612 282.462 73.768C283 73.924 283.615 74.0887 284.308 74.262C285.21 74.5047 286.024 74.7647 286.752 75.042C287.498 75.3193 288.122 75.666 288.624 76.082C289.144 76.498 289.543 77.0007 289.82 77.59C290.098 78.162 290.236 78.8727 290.236 79.722C290.236 80.71 290.046 81.5593 289.664 82.27C289.3 82.9633 288.798 83.5267 288.156 83.96C287.532 84.3933 286.804 84.714 285.972 84.922C285.158 85.1127 284.3 85.208 283.398 85.208C282.012 85.208 280.642 85 279.29 84.584C277.938 84.168 276.725 83.5787 275.65 82.816L277.236 79.722C277.392 79.878 277.67 80.086 278.068 80.346C278.484 80.5887 278.97 80.84 279.524 81.1C280.079 81.3427 280.694 81.5507 281.37 81.724C282.046 81.8973 282.74 81.984 283.45 81.984C285.426 81.984 286.414 81.3513 286.414 80.086C286.414 79.6873 286.302 79.3493 286.076 79.072C285.851 78.7947 285.53 78.552 285.114 78.344C284.698 78.136 284.196 77.9453 283.606 77.772C283.017 77.5987 282.358 77.408 281.63 77.2C280.746 76.9573 279.975 76.6973 279.316 76.42C278.675 76.1253 278.138 75.7873 277.704 75.406C277.271 75.0073 276.942 74.5567 276.716 74.054C276.508 73.534 276.404 72.9187 276.404 72.208C276.404 71.272 276.578 70.44 276.924 69.712C277.271 68.984 277.748 68.3773 278.354 67.892C278.978 67.4067 279.698 67.0427 280.512 66.8C281.327 66.54 282.202 66.41 283.138 66.41C284.438 66.41 285.634 66.618 286.726 67.034C287.818 67.4327 288.772 67.9093 289.586 68.464L288 71.376ZM301.401 84.298C300.933 84.506 300.361 84.714 299.685 84.922C299.009 85.13 298.299 85.234 297.553 85.234C297.068 85.234 296.609 85.1733 296.175 85.052C295.759 84.9307 295.387 84.74 295.057 84.48C294.745 84.2027 294.494 83.856 294.303 83.44C294.113 83.0067 294.017 82.4867 294.017 81.88V74.054H292.223V71.376H294.017V66.956H297.501V71.376H300.361V74.054H297.501V80.71C297.501 81.1953 297.623 81.542 297.865 81.75C298.125 81.9407 298.437 82.036 298.801 82.036C299.165 82.036 299.521 81.9753 299.867 81.854C300.214 81.7327 300.491 81.6287 300.699 81.542L301.401 84.298ZM308.156 85.26C306.752 85.26 305.686 84.8093 304.958 83.908C304.23 83.0067 303.866 81.672 303.866 79.904V71.376H307.35V79.15C307.35 81.2473 308.104 82.296 309.612 82.296C310.288 82.296 310.938 82.0967 311.562 81.698C312.203 81.282 312.723 80.658 313.122 79.826V71.376H316.606V80.996C316.606 81.36 316.666 81.62 316.788 81.776C316.926 81.932 317.143 82.0187 317.438 82.036V85C317.091 85.0693 316.796 85.1127 316.554 85.13C316.328 85.1473 316.12 85.156 315.93 85.156C315.306 85.156 314.794 85.0173 314.396 84.74C314.014 84.4453 313.789 84.0467 313.72 83.544L313.642 82.452C313.035 83.388 312.255 84.09 311.302 84.558C310.348 85.026 309.3 85.26 308.156 85.26ZM326.49 85.26C325.554 85.26 324.687 85.078 323.89 84.714C323.093 84.35 322.408 83.8473 321.836 83.206C321.264 82.5647 320.813 81.8193 320.484 80.97C320.172 80.1033 320.016 79.176 320.016 78.188C320.016 77.2 320.163 76.2813 320.458 75.432C320.77 74.5827 321.195 73.8373 321.732 73.196C322.269 72.5547 322.911 72.052 323.656 71.688C324.401 71.324 325.216 71.142 326.1 71.142C327.105 71.142 328.007 71.3847 328.804 71.87C329.619 72.3553 330.251 72.988 330.702 73.768V66.02H334.186V80.996C334.186 81.36 334.247 81.62 334.368 81.776C334.489 81.932 334.697 82.0187 334.992 82.036V85C334.385 85.1213 333.891 85.182 333.51 85.182C332.886 85.182 332.375 85.026 331.976 84.714C331.577 84.402 331.352 83.9947 331.3 83.492L331.222 82.634C330.719 83.5007 330.035 84.1593 329.168 84.61C328.319 85.0433 327.426 85.26 326.49 85.26ZM327.4 82.296C327.729 82.296 328.067 82.244 328.414 82.14C328.761 82.0187 329.081 81.854 329.376 81.646C329.671 81.438 329.931 81.1953 330.156 80.918C330.399 80.6407 330.581 80.3373 330.702 80.008V76.758C330.563 76.3767 330.364 76.03 330.104 75.718C329.861 75.3887 329.575 75.1113 329.246 74.886C328.934 74.6433 328.596 74.4527 328.232 74.314C327.885 74.1753 327.539 74.106 327.192 74.106C326.672 74.106 326.187 74.2187 325.736 74.444C325.303 74.6693 324.93 74.9813 324.618 75.38C324.306 75.7613 324.063 76.2033 323.89 76.706C323.717 77.2087 323.63 77.7287 323.63 78.266C323.63 78.838 323.725 79.3667 323.916 79.852C324.107 80.3373 324.367 80.762 324.696 81.126C325.025 81.49 325.415 81.776 325.866 81.984C326.334 82.192 326.845 82.296 327.4 82.296ZM338.386 85V71.376H341.87V85H338.386ZM338.386 69.478V66.02H341.87V69.478H338.386ZM352.085 85.26C350.975 85.26 349.979 85.0693 349.095 84.688C348.211 84.3067 347.457 83.7953 346.833 83.154C346.226 82.4953 345.758 81.7413 345.429 80.892C345.099 80.0427 344.935 79.15 344.935 78.214C344.935 77.2607 345.099 76.3593 345.429 75.51C345.758 74.6607 346.226 73.9153 346.833 73.274C347.457 72.6153 348.211 72.0953 349.095 71.714C349.979 71.3327 350.975 71.142 352.085 71.142C353.194 71.142 354.182 71.3327 355.049 71.714C355.933 72.0953 356.678 72.6153 357.285 73.274C357.909 73.9153 358.385 74.6607 358.715 75.51C359.044 76.3593 359.209 77.2607 359.209 78.214C359.209 79.15 359.044 80.0427 358.715 80.892C358.385 81.7413 357.917 82.4953 357.311 83.154C356.704 83.7953 355.959 84.3067 355.075 84.688C354.191 85.0693 353.194 85.26 352.085 85.26ZM348.523 78.214C348.523 78.8207 348.609 79.3753 348.783 79.878C348.973 80.3633 349.225 80.788 349.537 81.152C349.866 81.516 350.247 81.802 350.681 82.01C351.114 82.2007 351.582 82.296 352.085 82.296C352.587 82.296 353.055 82.2007 353.489 82.01C353.922 81.802 354.295 81.516 354.607 81.152C354.936 80.788 355.187 80.3547 355.361 79.852C355.551 79.3493 355.647 78.7947 355.647 78.188C355.647 77.5987 355.551 77.0527 355.361 76.55C355.187 76.0473 354.936 75.614 354.607 75.25C354.295 74.886 353.922 74.6087 353.489 74.418C353.055 74.21 352.587 74.106 352.085 74.106C351.582 74.106 351.114 74.21 350.681 74.418C350.247 74.626 349.866 74.912 349.537 75.276C349.225 75.64 348.973 76.0733 348.783 76.576C348.609 77.0787 348.523 77.6247 348.523 78.214Z" fill="white"/>
<path d="M220.216 126.318L222.731 120.604H223.948L220.653 128H219.778L216.497 120.604H217.714L220.216 126.318ZM217.345 120.604V128H216.08V120.604H217.345ZM223.046 128V120.604H224.317V128H223.046ZM226.795 127.33C226.795 127.116 226.861 126.936 226.993 126.79C227.13 126.64 227.326 126.564 227.581 126.564C227.836 126.564 228.03 126.64 228.162 126.79C228.299 126.936 228.367 127.116 228.367 127.33C228.367 127.54 228.299 127.717 228.162 127.863C228.03 128.009 227.836 128.082 227.581 128.082C227.326 128.082 227.13 128.009 226.993 127.863C226.861 127.717 226.795 127.54 226.795 127.33ZM236.351 118.047V128H235.031V118.047H236.351ZM242.483 118.047L238.162 123.522H235.824L235.619 122.429H237.376L240.849 118.047H242.483ZM241.156 128L237.417 123.352L238.156 122.196L242.77 128H241.156ZM245.398 125.997L248.809 120.604H250.08V128H248.809V122.606L245.398 128H244.14V120.604H245.398V125.997ZM253.898 120.604V128H252.633V120.604H253.898ZM251.088 118.642C251.088 118.437 251.152 118.263 251.28 118.122C251.407 117.981 251.592 117.91 251.833 117.91C252.079 117.91 252.266 117.981 252.394 118.122C252.522 118.263 252.585 118.437 252.585 118.642C252.585 118.838 252.522 119.006 252.394 119.147C252.266 119.284 252.079 119.353 251.833 119.353C251.592 119.353 251.407 119.284 251.28 119.147C251.152 119.006 251.088 118.838 251.088 118.642ZM254.035 118.655C254.035 118.45 254.096 118.277 254.219 118.136C254.347 117.994 254.534 117.924 254.78 117.924C255.021 117.924 255.206 117.994 255.333 118.136C255.466 118.277 255.532 118.45 255.532 118.655C255.532 118.851 255.466 119.02 255.333 119.161C255.206 119.298 255.021 119.366 254.78 119.366C254.534 119.366 254.347 119.298 254.219 119.161C254.096 119.02 254.035 118.851 254.035 118.655ZM259.896 124.746H257.469L257.456 123.734H259.438C259.83 123.734 260.156 123.696 260.416 123.618C260.68 123.541 260.878 123.424 261.01 123.27C261.142 123.115 261.208 122.923 261.208 122.695C261.208 122.518 261.17 122.363 261.092 122.23C261.019 122.094 260.908 121.982 260.757 121.896C260.607 121.804 260.42 121.738 260.197 121.697C259.978 121.652 259.721 121.629 259.424 121.629H257.804V128H256.54V120.604H259.424C259.894 120.604 260.315 120.645 260.689 120.727C261.067 120.809 261.388 120.934 261.653 121.103C261.922 121.267 262.127 121.476 262.268 121.731C262.409 121.987 262.48 122.287 262.48 122.634C262.48 122.857 262.434 123.069 262.343 123.27C262.252 123.47 262.118 123.648 261.94 123.803C261.762 123.958 261.543 124.085 261.284 124.186C261.024 124.281 260.725 124.343 260.388 124.37L259.896 124.746ZM259.896 128H257.011L257.64 126.975H259.896C260.247 126.975 260.539 126.931 260.771 126.845C261.003 126.754 261.177 126.626 261.291 126.462C261.409 126.293 261.468 126.093 261.468 125.86C261.468 125.628 261.409 125.43 261.291 125.266C261.177 125.097 261.003 124.969 260.771 124.883C260.539 124.792 260.247 124.746 259.896 124.746H257.975L257.989 123.734H260.388L260.846 124.117C261.252 124.149 261.596 124.249 261.878 124.418C262.161 124.587 262.375 124.801 262.521 125.061C262.667 125.316 262.74 125.594 262.74 125.895C262.74 126.241 262.674 126.546 262.541 126.811C262.414 127.075 262.227 127.296 261.981 127.474C261.735 127.647 261.436 127.779 261.085 127.87C260.735 127.957 260.338 128 259.896 128ZM266.003 126.496V127.515C266.003 127.929 265.899 128.367 265.689 128.827C265.479 129.292 265.185 129.679 264.807 129.989L264.089 129.49C264.235 129.29 264.358 129.085 264.459 128.875C264.559 128.67 264.634 128.456 264.684 128.232C264.739 128.014 264.766 127.781 264.766 127.535V126.496H266.003ZM276.858 120.604V121.649H273.119V120.604H276.858ZM273.303 120.604V128H272.039V120.604H273.303ZM277.979 120.604V128H276.708V120.604H277.979ZM281.694 122.025V130.844H280.423V120.604H281.585L281.694 122.025ZM286.678 124.24V124.384C286.678 124.922 286.614 125.421 286.486 125.881C286.359 126.337 286.172 126.733 285.926 127.07C285.684 127.408 285.386 127.67 285.03 127.856C284.675 128.043 284.267 128.137 283.806 128.137C283.337 128.137 282.922 128.059 282.562 127.904C282.202 127.749 281.897 127.524 281.646 127.228C281.396 126.931 281.195 126.576 281.045 126.161C280.899 125.746 280.799 125.279 280.744 124.76V123.994C280.799 123.447 280.901 122.957 281.052 122.524C281.202 122.091 281.4 121.722 281.646 121.417C281.897 121.107 282.2 120.872 282.555 120.713C282.911 120.549 283.321 120.467 283.786 120.467C284.251 120.467 284.663 120.558 285.023 120.74C285.383 120.918 285.686 121.173 285.932 121.506C286.179 121.839 286.363 122.237 286.486 122.702C286.614 123.162 286.678 123.675 286.678 124.24ZM285.406 124.384V124.24C285.406 123.871 285.367 123.525 285.29 123.201C285.212 122.873 285.092 122.586 284.928 122.34C284.768 122.089 284.563 121.893 284.312 121.752C284.062 121.606 283.763 121.533 283.417 121.533C283.098 121.533 282.82 121.588 282.583 121.697C282.35 121.807 282.152 121.955 281.988 122.142C281.824 122.324 281.69 122.534 281.585 122.771C281.485 123.003 281.409 123.244 281.359 123.495V125.266C281.45 125.585 281.578 125.885 281.742 126.168C281.906 126.446 282.125 126.672 282.398 126.845C282.672 127.013 283.016 127.098 283.43 127.098C283.772 127.098 284.066 127.027 284.312 126.886C284.563 126.74 284.768 126.542 284.928 126.291C285.092 126.04 285.212 125.753 285.29 125.43C285.367 125.102 285.406 124.753 285.406 124.384ZM291.343 123.249V124.288H288.007V123.249H291.343ZM296.015 120.604V128H294.743V120.604H296.015ZM298.496 120.604V121.629H292.31V120.604H298.496ZM310.643 118.047V119.127H306.09V118.047H310.643ZM311.777 118.047V128H310.458V118.047H311.777ZM305.639 118.047H306.951L306.726 122.921C306.694 123.623 306.639 124.249 306.562 124.801C306.489 125.348 306.384 125.824 306.247 126.229C306.11 126.631 305.933 126.963 305.714 127.228C305.495 127.487 305.226 127.681 304.907 127.809C304.593 127.936 304.215 128 303.773 128H303.417V126.927L303.691 126.906C303.946 126.888 304.165 126.831 304.347 126.735C304.534 126.635 304.691 126.485 304.818 126.284C304.951 126.084 305.058 125.824 305.14 125.505C305.222 125.186 305.286 124.796 305.331 124.336C305.381 123.871 305.42 123.329 305.447 122.709L305.639 118.047ZM317.454 128.137C316.939 128.137 316.472 128.05 316.053 127.877C315.638 127.699 315.28 127.451 314.98 127.132C314.683 126.813 314.456 126.435 314.296 125.997C314.137 125.56 314.057 125.081 314.057 124.562V124.274C314.057 123.673 314.146 123.137 314.323 122.668C314.501 122.194 314.743 121.793 315.048 121.465C315.353 121.137 315.7 120.888 316.087 120.72C316.474 120.551 316.876 120.467 317.29 120.467C317.819 120.467 318.275 120.558 318.657 120.74C319.045 120.923 319.362 121.178 319.608 121.506C319.854 121.829 320.036 122.212 320.154 122.654C320.273 123.092 320.332 123.57 320.332 124.09V124.657H314.809V123.625H319.068V123.529C319.049 123.201 318.981 122.882 318.863 122.572C318.749 122.262 318.566 122.007 318.316 121.807C318.065 121.606 317.723 121.506 317.29 121.506C317.003 121.506 316.739 121.567 316.497 121.69C316.256 121.809 316.048 121.987 315.875 122.224C315.702 122.461 315.568 122.75 315.472 123.092C315.376 123.434 315.328 123.828 315.328 124.274V124.562C315.328 124.912 315.376 125.243 315.472 125.553C315.572 125.858 315.716 126.127 315.903 126.359C316.094 126.592 316.324 126.774 316.593 126.906C316.866 127.038 317.176 127.104 317.523 127.104C317.969 127.104 318.348 127.013 318.657 126.831C318.967 126.649 319.238 126.405 319.471 126.1L320.237 126.708C320.077 126.95 319.874 127.18 319.628 127.398C319.382 127.617 319.079 127.795 318.719 127.932C318.363 128.068 317.942 128.137 317.454 128.137ZM325.189 127.098C325.49 127.098 325.768 127.036 326.023 126.913C326.278 126.79 326.488 126.621 326.652 126.407C326.816 126.188 326.909 125.94 326.932 125.662H328.135C328.112 126.1 327.964 126.507 327.691 126.886C327.422 127.259 327.069 127.562 326.631 127.795C326.194 128.023 325.713 128.137 325.189 128.137C324.633 128.137 324.147 128.039 323.733 127.843C323.323 127.647 322.981 127.378 322.707 127.036C322.438 126.694 322.236 126.302 322.099 125.86C321.967 125.414 321.901 124.942 321.901 124.445V124.158C321.901 123.661 321.967 123.192 322.099 122.75C322.236 122.303 322.438 121.909 322.707 121.567C322.981 121.226 323.323 120.957 323.733 120.761C324.147 120.565 324.633 120.467 325.189 120.467C325.768 120.467 326.273 120.585 326.706 120.822C327.139 121.055 327.479 121.374 327.725 121.779C327.976 122.18 328.112 122.636 328.135 123.146H326.932C326.909 122.841 326.823 122.565 326.672 122.319C326.526 122.073 326.326 121.877 326.071 121.731C325.82 121.581 325.526 121.506 325.189 121.506C324.801 121.506 324.476 121.583 324.211 121.738C323.951 121.889 323.744 122.094 323.589 122.354C323.439 122.609 323.329 122.894 323.261 123.208C323.197 123.518 323.165 123.835 323.165 124.158V124.445C323.165 124.769 323.197 125.088 323.261 125.402C323.325 125.717 323.432 126.002 323.582 126.257C323.737 126.512 323.945 126.717 324.204 126.872C324.469 127.022 324.797 127.098 325.189 127.098ZM331.351 120.604V128H330.079V120.604H331.351ZM329.984 118.642C329.984 118.437 330.045 118.263 330.168 118.122C330.296 117.981 330.483 117.91 330.729 117.91C330.97 117.91 331.155 117.981 331.283 118.122C331.415 118.263 331.481 118.437 331.481 118.642C331.481 118.838 331.415 119.006 331.283 119.147C331.155 119.284 330.97 119.353 330.729 119.353C330.483 119.353 330.296 119.284 330.168 119.147C330.045 119.006 329.984 118.838 329.984 118.642ZM340.968 124.698L343.6 118.047H345.118L341.597 126.339C341.497 126.571 341.385 126.797 341.262 127.016C341.139 127.23 340.989 127.421 340.811 127.59C340.633 127.758 340.412 127.893 340.148 127.993C339.888 128.093 339.565 128.144 339.177 128.144C339.068 128.144 338.938 128.137 338.788 128.123C338.637 128.114 338.539 128.103 338.494 128.089L338.535 127.036C338.585 127.045 338.683 127.054 338.829 127.063C338.974 127.068 339.082 127.07 339.15 127.07C339.41 127.07 339.615 127.018 339.765 126.913C339.916 126.808 340.036 126.676 340.127 126.517C340.223 126.353 340.31 126.186 340.387 126.018L340.968 124.698ZM338.733 118.047L341.501 124.247L341.83 125.471L340.722 125.553L337.256 118.047H338.733ZM347.595 120.604V128H346.331V120.604H347.595ZM352.449 120.604L348.942 124.842H347.171L346.98 123.734H348.429L350.911 120.604H352.449ZM351.088 128L348.368 124.65L349.181 123.734L352.695 128H351.088ZM355.48 122.025V130.844H354.209V120.604H355.371L355.48 122.025ZM360.464 124.24V124.384C360.464 124.922 360.4 125.421 360.272 125.881C360.145 126.337 359.958 126.733 359.712 127.07C359.47 127.408 359.172 127.67 358.816 127.856C358.461 128.043 358.053 128.137 357.592 128.137C357.123 128.137 356.708 128.059 356.348 127.904C355.988 127.749 355.683 127.524 355.432 127.228C355.182 126.931 354.981 126.576 354.831 126.161C354.685 125.746 354.585 125.279 354.53 124.76V123.994C354.585 123.447 354.687 122.957 354.838 122.524C354.988 122.091 355.186 121.722 355.432 121.417C355.683 121.107 355.986 120.872 356.341 120.713C356.697 120.549 357.107 120.467 357.572 120.467C358.037 120.467 358.449 120.558 358.809 120.74C359.169 120.918 359.472 121.173 359.718 121.506C359.965 121.839 360.149 122.237 360.272 122.702C360.4 123.162 360.464 123.675 360.464 124.24ZM359.192 124.384V124.24C359.192 123.871 359.153 123.525 359.076 123.201C358.998 122.873 358.878 122.586 358.714 122.34C358.554 122.089 358.349 121.893 358.098 121.752C357.848 121.606 357.549 121.533 357.203 121.533C356.884 121.533 356.606 121.588 356.369 121.697C356.136 121.807 355.938 121.955 355.774 122.142C355.61 122.324 355.476 122.534 355.371 122.771C355.271 123.003 355.195 123.244 355.145 123.495V125.266C355.236 125.585 355.364 125.885 355.528 126.168C355.692 126.446 355.911 126.672 356.184 126.845C356.458 127.013 356.802 127.098 357.216 127.098C357.558 127.098 357.852 127.027 358.098 126.886C358.349 126.74 358.554 126.542 358.714 126.291C358.878 126.04 358.998 125.753 359.076 125.43C359.153 125.102 359.192 124.753 359.192 124.384ZM366.858 126.735V122.928C366.858 122.636 366.799 122.383 366.68 122.169C366.567 121.95 366.393 121.782 366.161 121.663C365.928 121.545 365.641 121.485 365.3 121.485C364.981 121.485 364.7 121.54 364.459 121.649C364.222 121.759 364.035 121.902 363.898 122.08C363.766 122.258 363.7 122.449 363.7 122.654H362.435C362.435 122.39 362.504 122.128 362.64 121.868C362.777 121.608 362.973 121.374 363.228 121.164C363.488 120.95 363.798 120.781 364.158 120.658C364.523 120.531 364.928 120.467 365.375 120.467C365.913 120.467 366.386 120.558 366.797 120.74C367.211 120.923 367.535 121.198 367.767 121.567C368.004 121.932 368.123 122.39 368.123 122.941V126.387C368.123 126.633 368.143 126.895 368.184 127.173C368.23 127.451 368.296 127.69 368.383 127.891V128H367.063C366.999 127.854 366.949 127.66 366.913 127.419C366.876 127.173 366.858 126.945 366.858 126.735ZM367.077 123.516L367.091 124.404H365.812C365.452 124.404 365.131 124.434 364.848 124.493C364.566 124.548 364.329 124.632 364.137 124.746C363.946 124.86 363.8 125.004 363.7 125.177C363.6 125.345 363.55 125.544 363.55 125.771C363.55 126.004 363.602 126.216 363.707 126.407C363.812 126.599 363.969 126.751 364.178 126.865C364.393 126.975 364.655 127.029 364.965 127.029C365.352 127.029 365.694 126.947 365.99 126.783C366.286 126.619 366.521 126.419 366.694 126.182C366.872 125.945 366.968 125.715 366.981 125.491L367.521 126.1C367.489 126.291 367.403 126.503 367.261 126.735C367.12 126.968 366.931 127.191 366.694 127.405C366.462 127.615 366.184 127.79 365.86 127.932C365.541 128.068 365.181 128.137 364.78 128.137C364.279 128.137 363.839 128.039 363.461 127.843C363.087 127.647 362.795 127.385 362.586 127.057C362.381 126.724 362.278 126.353 362.278 125.942C362.278 125.546 362.356 125.197 362.511 124.896C362.665 124.591 362.889 124.338 363.18 124.138C363.472 123.933 363.823 123.778 364.233 123.673C364.643 123.568 365.101 123.516 365.607 123.516H367.077ZM371.899 120.604V128H370.635V120.604H371.899ZM369.09 118.642C369.09 118.437 369.153 118.263 369.281 118.122C369.409 117.981 369.593 117.91 369.835 117.91C370.081 117.91 370.268 117.981 370.395 118.122C370.523 118.263 370.587 118.437 370.587 118.642C370.587 118.838 370.523 119.006 370.395 119.147C370.268 119.284 370.081 119.353 369.835 119.353C369.593 119.353 369.409 119.284 369.281 119.147C369.153 119.006 369.09 118.838 369.09 118.642ZM372.036 118.655C372.036 118.45 372.098 118.277 372.221 118.136C372.348 117.994 372.535 117.924 372.781 117.924C373.023 117.924 373.207 117.994 373.335 118.136C373.467 118.277 373.533 118.45 373.533 118.655C373.533 118.851 373.467 119.02 373.335 119.161C373.207 119.298 373.023 119.366 372.781 119.366C372.535 119.366 372.348 119.298 372.221 119.161C372.098 119.02 372.036 118.851 372.036 118.655ZM379.442 123.81V124.835H375.532V123.81H379.442ZM375.799 120.604V128H374.534V120.604H375.799ZM380.468 120.604V128H379.196V120.604H380.468ZM384.299 120.604V128H383.034V120.604H384.299ZM389.152 120.604L385.646 124.842H383.875L383.684 123.734H385.133L387.614 120.604H389.152ZM387.792 128L385.071 124.65L385.885 123.734L389.398 128H387.792ZM392.286 125.997L395.697 120.604H396.969V128H395.697V122.606L392.286 128H391.028V120.604H392.286V125.997ZM400.568 126.496V127.515C400.568 127.929 400.463 128.367 400.253 128.827C400.043 129.292 399.75 129.679 399.371 129.989L398.653 129.49C398.799 129.29 398.922 129.085 399.023 128.875C399.123 128.67 399.198 128.456 399.248 128.232C399.303 128.014 399.33 127.781 399.33 127.535V126.496H400.568ZM412.878 126.961V128H406.364V127.091L409.624 123.461C410.025 123.014 410.335 122.636 410.554 122.326C410.777 122.012 410.932 121.731 411.019 121.485C411.11 121.235 411.156 120.979 411.156 120.72C411.156 120.392 411.087 120.095 410.951 119.831C410.818 119.562 410.622 119.348 410.363 119.188C410.103 119.029 409.788 118.949 409.419 118.949C408.977 118.949 408.608 119.036 408.312 119.209C408.02 119.378 407.801 119.615 407.656 119.92C407.51 120.225 407.437 120.576 407.437 120.973H406.172C406.172 120.412 406.295 119.899 406.541 119.435C406.787 118.97 407.152 118.601 407.635 118.327C408.118 118.049 408.713 117.91 409.419 117.91C410.048 117.91 410.586 118.022 411.033 118.245C411.479 118.464 411.821 118.774 412.058 119.175C412.299 119.571 412.42 120.036 412.42 120.569C412.42 120.861 412.37 121.157 412.27 121.458C412.174 121.754 412.04 122.05 411.867 122.347C411.698 122.643 411.5 122.935 411.272 123.222C411.048 123.509 410.809 123.791 410.554 124.069L407.888 126.961H412.878ZM419.505 118.033H419.615V119.106H419.505C418.835 119.106 418.275 119.216 417.824 119.435C417.372 119.649 417.015 119.938 416.75 120.303C416.486 120.663 416.295 121.068 416.176 121.52C416.062 121.971 416.005 122.429 416.005 122.894V124.356C416.005 124.799 416.058 125.19 416.163 125.532C416.267 125.869 416.411 126.154 416.593 126.387C416.775 126.619 416.981 126.795 417.208 126.913C417.441 127.032 417.682 127.091 417.933 127.091C418.225 127.091 418.484 127.036 418.712 126.927C418.94 126.813 419.132 126.656 419.287 126.455C419.446 126.25 419.567 126.008 419.649 125.73C419.731 125.452 419.772 125.147 419.772 124.814C419.772 124.518 419.735 124.233 419.663 123.96C419.59 123.682 419.478 123.436 419.328 123.222C419.177 123.003 418.988 122.832 418.76 122.709C418.537 122.581 418.27 122.518 417.96 122.518C417.609 122.518 417.281 122.604 416.976 122.777C416.675 122.946 416.427 123.169 416.231 123.447C416.039 123.721 415.93 124.019 415.903 124.343L415.233 124.336C415.297 123.826 415.415 123.39 415.588 123.03C415.766 122.666 415.985 122.369 416.245 122.142C416.509 121.909 416.803 121.741 417.126 121.636C417.454 121.526 417.801 121.472 418.165 121.472C418.662 121.472 419.091 121.565 419.451 121.752C419.811 121.939 420.107 122.189 420.339 122.504C420.572 122.814 420.743 123.165 420.852 123.557C420.966 123.944 421.023 124.343 421.023 124.753C421.023 125.222 420.957 125.662 420.825 126.072C420.692 126.482 420.494 126.842 420.23 127.152C419.97 127.462 419.649 127.704 419.266 127.877C418.883 128.05 418.439 128.137 417.933 128.137C417.395 128.137 416.926 128.027 416.525 127.809C416.124 127.585 415.791 127.289 415.527 126.92C415.262 126.551 415.064 126.141 414.932 125.689C414.8 125.238 414.734 124.78 414.734 124.315V123.721C414.734 123.019 414.804 122.331 414.946 121.656C415.087 120.982 415.331 120.371 415.677 119.824C416.028 119.277 416.513 118.842 417.133 118.519C417.753 118.195 418.544 118.033 419.505 118.033Z" fill="white"/>
<path d="M217.338 150.604V158H216.066V150.604H217.338ZM215.971 148.642C215.971 148.437 216.032 148.263 216.155 148.122C216.283 147.981 216.47 147.91 216.716 147.91C216.957 147.91 217.142 147.981 217.27 148.122C217.402 148.263 217.468 148.437 217.468 148.642C217.468 148.838 217.402 149.006 217.27 149.147C217.142 149.284 216.957 149.353 216.716 149.353C216.47 149.353 216.283 149.284 216.155 149.147C216.032 149.006 215.971 148.838 215.971 148.642ZM221.053 152.183V158H219.788V150.604H220.984L221.053 152.183ZM220.752 154.021L220.226 154.001C220.23 153.495 220.305 153.028 220.451 152.6C220.597 152.167 220.802 151.791 221.066 151.472C221.331 151.153 221.645 150.907 222.01 150.733C222.379 150.556 222.787 150.467 223.233 150.467C223.598 150.467 223.926 150.517 224.218 150.617C224.51 150.713 224.758 150.868 224.963 151.082C225.173 151.296 225.332 151.574 225.441 151.916C225.551 152.253 225.606 152.666 225.606 153.153V158H224.334V153.14C224.334 152.752 224.277 152.442 224.163 152.21C224.049 151.973 223.883 151.802 223.664 151.697C223.445 151.588 223.177 151.533 222.858 151.533C222.543 151.533 222.256 151.599 221.996 151.731C221.741 151.864 221.52 152.046 221.333 152.278C221.151 152.511 221.007 152.777 220.902 153.078C220.802 153.374 220.752 153.689 220.752 154.021ZM229.833 158H228.569V149.824C228.569 149.291 228.664 148.842 228.856 148.478C229.052 148.108 229.332 147.83 229.696 147.644C230.061 147.452 230.494 147.356 230.995 147.356C231.141 147.356 231.287 147.366 231.433 147.384C231.583 147.402 231.729 147.429 231.87 147.466L231.802 148.498C231.706 148.475 231.597 148.459 231.474 148.45C231.355 148.441 231.237 148.437 231.118 148.437C230.849 148.437 230.617 148.491 230.421 148.601C230.23 148.705 230.084 148.86 229.984 149.065C229.883 149.271 229.833 149.523 229.833 149.824V158ZM231.405 150.604V151.574H227.4V150.604H231.405ZM232.899 154.384V154.227C232.899 153.693 232.976 153.199 233.131 152.743C233.286 152.283 233.509 151.884 233.801 151.547C234.093 151.205 234.446 150.941 234.861 150.754C235.275 150.562 235.74 150.467 236.255 150.467C236.775 150.467 237.242 150.562 237.656 150.754C238.076 150.941 238.431 151.205 238.723 151.547C239.019 151.884 239.245 152.283 239.4 152.743C239.555 153.199 239.632 153.693 239.632 154.227V154.384C239.632 154.917 239.555 155.411 239.4 155.867C239.245 156.323 239.019 156.722 238.723 157.063C238.431 157.401 238.078 157.665 237.663 157.856C237.253 158.043 236.788 158.137 236.269 158.137C235.749 158.137 235.282 158.043 234.867 157.856C234.453 157.665 234.097 157.401 233.801 157.063C233.509 156.722 233.286 156.323 233.131 155.867C232.976 155.411 232.899 154.917 232.899 154.384ZM234.163 154.227V154.384C234.163 154.753 234.207 155.102 234.293 155.43C234.38 155.753 234.51 156.04 234.683 156.291C234.861 156.542 235.082 156.74 235.346 156.886C235.61 157.027 235.918 157.098 236.269 157.098C236.615 157.098 236.918 157.027 237.178 156.886C237.442 156.74 237.661 156.542 237.834 156.291C238.007 156.04 238.137 155.753 238.224 155.43C238.315 155.102 238.361 154.753 238.361 154.384V154.227C238.361 153.862 238.315 153.518 238.224 153.194C238.137 152.866 238.005 152.577 237.827 152.326C237.654 152.071 237.435 151.87 237.171 151.725C236.911 151.579 236.606 151.506 236.255 151.506C235.909 151.506 235.603 151.579 235.339 151.725C235.079 151.87 234.861 152.071 234.683 152.326C234.51 152.577 234.38 152.866 234.293 153.194C234.207 153.518 234.163 153.862 234.163 154.227ZM252.541 154.562C252.523 154.981 252.459 155.402 252.35 155.826C252.241 156.245 252.076 156.631 251.858 156.981C251.639 157.332 251.354 157.615 251.003 157.829C250.657 158.039 250.238 158.144 249.745 158.144C249.431 158.144 249.155 158.089 248.918 157.979C248.686 157.866 248.494 157.704 248.344 157.494C248.198 157.285 248.096 157.032 248.036 156.735C247.982 156.439 247.973 156.109 248.009 155.744L248.358 151.957H249.363L249.014 155.744C248.987 156.077 248.993 156.348 249.034 156.558C249.08 156.767 249.148 156.929 249.24 157.043C249.331 157.152 249.433 157.228 249.547 157.269C249.666 157.31 249.78 157.33 249.889 157.33C250.162 157.33 250.406 157.259 250.62 157.118C250.835 156.972 251.015 156.774 251.16 156.523C251.311 156.268 251.427 155.974 251.509 155.642C251.591 155.304 251.641 154.944 251.659 154.562C251.691 153.882 251.659 153.258 251.564 152.688C251.473 152.119 251.315 151.613 251.092 151.171C250.873 150.729 250.586 150.355 250.231 150.05C249.875 149.744 249.451 149.512 248.959 149.353C248.467 149.193 247.904 149.113 247.271 149.113C246.697 149.113 246.166 149.202 245.678 149.38C245.195 149.553 244.76 149.804 244.372 150.132C243.99 150.46 243.659 150.854 243.381 151.314C243.108 151.775 242.891 152.294 242.732 152.873C242.577 153.447 242.486 154.067 242.458 154.732C242.426 155.416 242.463 156.045 242.568 156.619C242.673 157.189 242.841 157.697 243.074 158.144C243.311 158.595 243.609 158.975 243.969 159.285C244.329 159.6 244.746 159.837 245.22 159.996C245.694 160.16 246.223 160.242 246.806 160.242C247.207 160.242 247.613 160.194 248.023 160.099C248.437 160.003 248.784 159.873 249.062 159.709L249.322 160.488C249.003 160.693 248.604 160.846 248.125 160.946C247.651 161.047 247.202 161.097 246.779 161.097C246.086 161.097 245.452 161.001 244.878 160.81C244.309 160.623 243.803 160.347 243.361 159.982C242.923 159.622 242.559 159.183 242.267 158.663C241.975 158.148 241.761 157.56 241.624 156.899C241.488 156.239 241.435 155.516 241.467 154.732C241.499 153.985 241.611 153.281 241.802 152.62C241.998 151.959 242.265 151.36 242.602 150.822C242.939 150.285 243.34 149.822 243.805 149.435C244.274 149.043 244.801 148.742 245.384 148.532C245.972 148.323 246.61 148.218 247.298 148.218C248 148.218 248.636 148.313 249.205 148.505C249.775 148.696 250.274 148.972 250.702 149.332C251.135 149.692 251.493 150.132 251.776 150.651C252.058 151.171 252.263 151.759 252.391 152.415C252.523 153.071 252.573 153.787 252.541 154.562ZM245.521 155.143C245.489 155.462 245.489 155.746 245.521 155.997C245.553 156.248 245.614 156.46 245.705 156.633C245.797 156.806 245.915 156.938 246.061 157.029C246.211 157.116 246.387 157.159 246.587 157.159C246.719 157.159 246.858 157.127 247.004 157.063C247.15 156.995 247.294 156.89 247.435 156.749C247.576 156.608 247.708 156.423 247.831 156.195C247.954 155.967 248.057 155.694 248.139 155.375L248.59 155.867C248.485 156.241 248.349 156.569 248.18 156.852C248.016 157.134 247.831 157.371 247.626 157.562C247.421 157.754 247.202 157.9 246.97 158C246.742 158.096 246.51 158.144 246.273 158.144C245.94 158.144 245.648 158.073 245.398 157.932C245.147 157.786 244.944 157.581 244.789 157.316C244.634 157.052 244.525 156.738 244.461 156.373C244.402 156.004 244.393 155.594 244.434 155.143C244.475 154.664 244.559 154.222 244.687 153.816C244.814 153.411 244.972 153.049 245.159 152.729C245.35 152.41 245.564 152.139 245.801 151.916C246.043 151.693 246.298 151.524 246.567 151.41C246.836 151.292 247.111 151.232 247.394 151.232C247.886 151.232 248.273 151.305 248.556 151.451C248.839 151.592 249.107 151.761 249.363 151.957L248.782 152.634C248.649 152.506 248.476 152.388 248.262 152.278C248.048 152.169 247.795 152.114 247.503 152.114C247.253 152.114 247.018 152.178 246.799 152.306C246.58 152.433 246.382 152.625 246.204 152.88C246.031 153.135 245.885 153.452 245.767 153.83C245.648 154.204 245.566 154.641 245.521 155.143ZM259.298 156.564V147.5H260.57V158H259.408L259.298 156.564ZM254.322 154.384V154.24C254.322 153.675 254.39 153.162 254.527 152.702C254.668 152.237 254.866 151.839 255.121 151.506C255.381 151.173 255.689 150.918 256.044 150.74C256.404 150.558 256.805 150.467 257.247 150.467C257.712 150.467 258.118 150.549 258.464 150.713C258.815 150.872 259.111 151.107 259.353 151.417C259.599 151.722 259.793 152.091 259.934 152.524C260.075 152.957 260.173 153.447 260.228 153.994V154.623C260.178 155.165 260.08 155.653 259.934 156.086C259.793 156.519 259.599 156.888 259.353 157.193C259.111 157.499 258.815 157.733 258.464 157.897C258.113 158.057 257.703 158.137 257.234 158.137C256.801 158.137 256.404 158.043 256.044 157.856C255.689 157.67 255.381 157.408 255.121 157.07C254.866 156.733 254.668 156.337 254.527 155.881C254.39 155.421 254.322 154.922 254.322 154.384ZM255.593 154.24V154.384C255.593 154.753 255.63 155.099 255.703 155.423C255.78 155.746 255.899 156.031 256.058 156.277C256.218 156.523 256.42 156.717 256.666 156.858C256.912 156.995 257.206 157.063 257.548 157.063C257.968 157.063 258.312 156.975 258.58 156.797C258.854 156.619 259.073 156.384 259.237 156.093C259.401 155.801 259.528 155.484 259.62 155.143V153.495C259.565 153.244 259.485 153.003 259.38 152.771C259.28 152.534 259.148 152.324 258.984 152.142C258.824 151.955 258.626 151.807 258.389 151.697C258.157 151.588 257.881 151.533 257.562 151.533C257.216 151.533 256.917 151.606 256.666 151.752C256.42 151.893 256.218 152.089 256.058 152.34C255.899 152.586 255.78 152.873 255.703 153.201C255.63 153.525 255.593 153.871 255.593 154.24ZM266.028 158.137C265.513 158.137 265.046 158.05 264.626 157.877C264.212 157.699 263.854 157.451 263.553 157.132C263.257 156.813 263.029 156.435 262.87 155.997C262.71 155.56 262.63 155.081 262.63 154.562V154.274C262.63 153.673 262.719 153.137 262.897 152.668C263.075 152.194 263.316 151.793 263.622 151.465C263.927 151.137 264.273 150.888 264.661 150.72C265.048 150.551 265.449 150.467 265.864 150.467C266.392 150.467 266.848 150.558 267.231 150.74C267.618 150.923 267.935 151.178 268.181 151.506C268.427 151.829 268.61 152.212 268.728 152.654C268.846 153.092 268.906 153.57 268.906 154.09V154.657H263.382V153.625H267.641V153.529C267.623 153.201 267.555 152.882 267.436 152.572C267.322 152.262 267.14 152.007 266.889 151.807C266.638 151.606 266.297 151.506 265.864 151.506C265.577 151.506 265.312 151.567 265.071 151.69C264.829 151.809 264.622 151.987 264.449 152.224C264.276 152.461 264.141 152.75 264.045 153.092C263.95 153.434 263.902 153.828 263.902 154.274V154.562C263.902 154.912 263.95 155.243 264.045 155.553C264.146 155.858 264.289 156.127 264.476 156.359C264.667 156.592 264.898 156.774 265.166 156.906C265.44 157.038 265.75 157.104 266.096 157.104C266.543 157.104 266.921 157.013 267.231 156.831C267.541 156.649 267.812 156.405 268.044 156.1L268.81 156.708C268.651 156.95 268.448 157.18 268.202 157.398C267.956 157.617 267.652 157.795 267.292 157.932C266.937 158.068 266.515 158.137 266.028 158.137ZM272.956 156.858L274.979 150.604H276.271L273.612 158H272.764L272.956 156.858ZM271.267 150.604L273.352 156.893L273.496 158H272.648L269.968 150.604H271.267ZM282.214 156.038C282.214 155.856 282.173 155.687 282.091 155.532C282.014 155.373 281.852 155.229 281.606 155.102C281.365 154.969 281 154.855 280.512 154.76C280.102 154.673 279.731 154.571 279.398 154.452C279.07 154.334 278.79 154.19 278.557 154.021C278.329 153.853 278.154 153.655 278.031 153.427C277.908 153.199 277.846 152.932 277.846 152.627C277.846 152.335 277.91 152.06 278.038 151.8C278.17 151.54 278.354 151.31 278.591 151.109C278.833 150.909 279.122 150.752 279.46 150.638C279.797 150.524 280.173 150.467 280.588 150.467C281.18 150.467 281.686 150.572 282.105 150.781C282.524 150.991 282.846 151.271 283.069 151.622C283.292 151.968 283.404 152.354 283.404 152.777H282.139C282.139 152.572 282.078 152.374 281.955 152.183C281.836 151.987 281.661 151.825 281.428 151.697C281.2 151.57 280.92 151.506 280.588 151.506C280.237 151.506 279.952 151.561 279.733 151.67C279.519 151.775 279.362 151.909 279.261 152.073C279.166 152.237 279.118 152.41 279.118 152.593C279.118 152.729 279.141 152.853 279.186 152.962C279.236 153.067 279.323 153.165 279.446 153.256C279.569 153.342 279.742 153.424 279.965 153.502C280.189 153.579 280.474 153.657 280.82 153.734C281.426 153.871 281.925 154.035 282.317 154.227C282.709 154.418 283.001 154.653 283.192 154.931C283.383 155.209 283.479 155.546 283.479 155.942C283.479 156.266 283.411 156.562 283.274 156.831C283.142 157.1 282.948 157.332 282.693 157.528C282.442 157.72 282.142 157.87 281.791 157.979C281.444 158.084 281.055 158.137 280.622 158.137C279.97 158.137 279.419 158.021 278.967 157.788C278.516 157.556 278.174 157.255 277.942 156.886C277.71 156.517 277.593 156.127 277.593 155.717H278.865C278.883 156.063 278.983 156.339 279.166 156.544C279.348 156.744 279.571 156.888 279.836 156.975C280.1 157.057 280.362 157.098 280.622 157.098C280.968 157.098 281.257 157.052 281.49 156.961C281.727 156.87 281.907 156.744 282.03 156.585C282.153 156.425 282.214 156.243 282.214 156.038ZM288.657 150.604V151.574H284.658V150.604H288.657ZM286.011 148.806H287.276V156.168C287.276 156.419 287.315 156.608 287.392 156.735C287.47 156.863 287.57 156.947 287.693 156.988C287.816 157.029 287.948 157.05 288.09 157.05C288.194 157.05 288.304 157.041 288.418 157.022C288.536 157 288.625 156.981 288.684 156.968L288.691 158C288.591 158.032 288.459 158.062 288.295 158.089C288.135 158.121 287.941 158.137 287.714 158.137C287.404 158.137 287.119 158.075 286.859 157.952C286.599 157.829 286.392 157.624 286.237 157.337C286.087 157.045 286.011 156.653 286.011 156.161V148.806ZM295.086 156.291V150.604H296.357V158H295.147L295.086 156.291ZM295.325 154.732L295.851 154.719C295.851 155.211 295.799 155.667 295.694 156.086C295.594 156.501 295.43 156.861 295.202 157.166C294.974 157.471 294.676 157.711 294.306 157.884C293.937 158.052 293.488 158.137 292.96 158.137C292.6 158.137 292.269 158.084 291.969 157.979C291.672 157.875 291.417 157.713 291.203 157.494C290.989 157.275 290.822 156.991 290.704 156.64C290.59 156.289 290.533 155.867 290.533 155.375V150.604H291.798V155.389C291.798 155.721 291.834 155.997 291.907 156.216C291.985 156.43 292.087 156.601 292.215 156.729C292.347 156.852 292.493 156.938 292.652 156.988C292.816 157.038 292.985 157.063 293.158 157.063C293.696 157.063 294.122 156.961 294.436 156.756C294.751 156.546 294.976 156.266 295.113 155.915C295.254 155.56 295.325 155.165 295.325 154.732ZM303.367 156.564V147.5H304.639V158H303.476L303.367 156.564ZM298.391 154.384V154.24C298.391 153.675 298.459 153.162 298.596 152.702C298.737 152.237 298.935 151.839 299.19 151.506C299.45 151.173 299.758 150.918 300.113 150.74C300.473 150.558 300.874 150.467 301.316 150.467C301.781 150.467 302.187 150.549 302.533 150.713C302.884 150.872 303.18 151.107 303.422 151.417C303.668 151.722 303.862 152.091 304.003 152.524C304.144 152.957 304.242 153.447 304.297 153.994V154.623C304.247 155.165 304.149 155.653 304.003 156.086C303.862 156.519 303.668 156.888 303.422 157.193C303.18 157.499 302.884 157.733 302.533 157.897C302.182 158.057 301.772 158.137 301.303 158.137C300.87 158.137 300.473 158.043 300.113 157.856C299.758 157.67 299.45 157.408 299.19 157.07C298.935 156.733 298.737 156.337 298.596 155.881C298.459 155.421 298.391 154.922 298.391 154.384ZM299.662 154.24V154.384C299.662 154.753 299.698 155.099 299.771 155.423C299.849 155.746 299.967 156.031 300.127 156.277C300.286 156.523 300.489 156.717 300.735 156.858C300.981 156.995 301.275 157.063 301.617 157.063C302.036 157.063 302.38 156.975 302.649 156.797C302.923 156.619 303.141 156.384 303.306 156.093C303.47 155.801 303.597 155.484 303.688 155.143V153.495C303.634 153.244 303.554 153.003 303.449 152.771C303.349 152.534 303.217 152.324 303.053 152.142C302.893 151.955 302.695 151.807 302.458 151.697C302.225 151.588 301.95 151.533 301.631 151.533C301.284 151.533 300.986 151.606 300.735 151.752C300.489 151.893 300.286 152.089 300.127 152.34C299.967 152.586 299.849 152.873 299.771 153.201C299.698 153.525 299.662 153.871 299.662 154.24ZM308.401 150.604V158H307.13V150.604H308.401ZM307.034 148.642C307.034 148.437 307.096 148.263 307.219 148.122C307.346 147.981 307.533 147.91 307.779 147.91C308.021 147.91 308.205 147.981 308.333 148.122C308.465 148.263 308.531 148.437 308.531 148.642C308.531 148.838 308.465 149.006 308.333 149.147C308.205 149.284 308.021 149.353 307.779 149.353C307.533 149.353 307.346 149.284 307.219 149.147C307.096 149.006 307.034 148.838 307.034 148.642ZM310.517 154.384V154.227C310.517 153.693 310.594 153.199 310.749 152.743C310.904 152.283 311.127 151.884 311.419 151.547C311.711 151.205 312.064 150.941 312.479 150.754C312.893 150.562 313.358 150.467 313.873 150.467C314.393 150.467 314.86 150.562 315.274 150.754C315.694 150.941 316.049 151.205 316.341 151.547C316.637 151.884 316.863 152.283 317.018 152.743C317.173 153.199 317.25 153.693 317.25 154.227V154.384C317.25 154.917 317.173 155.411 317.018 155.867C316.863 156.323 316.637 156.722 316.341 157.063C316.049 157.401 315.696 157.665 315.281 157.856C314.871 158.043 314.406 158.137 313.887 158.137C313.367 158.137 312.9 158.043 312.485 157.856C312.071 157.665 311.715 157.401 311.419 157.063C311.127 156.722 310.904 156.323 310.749 155.867C310.594 155.411 310.517 154.917 310.517 154.384ZM311.781 154.227V154.384C311.781 154.753 311.825 155.102 311.911 155.43C311.998 155.753 312.128 156.04 312.301 156.291C312.479 156.542 312.7 156.74 312.964 156.886C313.228 157.027 313.536 157.098 313.887 157.098C314.233 157.098 314.536 157.027 314.796 156.886C315.06 156.74 315.279 156.542 315.452 156.291C315.625 156.04 315.755 155.753 315.842 155.43C315.933 155.102 315.979 154.753 315.979 154.384V154.227C315.979 153.862 315.933 153.518 315.842 153.194C315.755 152.866 315.623 152.577 315.445 152.326C315.272 152.071 315.053 151.87 314.789 151.725C314.529 151.579 314.224 151.506 313.873 151.506C313.527 151.506 313.221 151.579 312.957 151.725C312.697 151.87 312.479 152.071 312.301 152.326C312.128 152.577 311.998 152.866 311.911 153.194C311.825 153.518 311.781 153.862 311.781 154.227ZM319.276 157.33C319.276 157.116 319.343 156.936 319.475 156.79C319.611 156.64 319.807 156.564 320.063 156.564C320.318 156.564 320.512 156.64 320.644 156.79C320.78 156.936 320.849 157.116 320.849 157.33C320.849 157.54 320.78 157.717 320.644 157.863C320.512 158.009 320.318 158.082 320.063 158.082C319.807 158.082 319.611 158.009 319.475 157.863C319.343 157.717 319.276 157.54 319.276 157.33ZM326.327 157.098C326.628 157.098 326.906 157.036 327.161 156.913C327.417 156.79 327.626 156.621 327.79 156.407C327.954 156.188 328.048 155.94 328.071 155.662H329.274C329.251 156.1 329.103 156.507 328.829 156.886C328.56 157.259 328.207 157.562 327.77 157.795C327.332 158.023 326.851 158.137 326.327 158.137C325.771 158.137 325.286 158.039 324.871 157.843C324.461 157.647 324.119 157.378 323.846 157.036C323.577 156.694 323.374 156.302 323.238 155.86C323.105 155.414 323.039 154.942 323.039 154.445V154.158C323.039 153.661 323.105 153.192 323.238 152.75C323.374 152.303 323.577 151.909 323.846 151.567C324.119 151.226 324.461 150.957 324.871 150.761C325.286 150.565 325.771 150.467 326.327 150.467C326.906 150.467 327.412 150.585 327.845 150.822C328.278 151.055 328.617 151.374 328.863 151.779C329.114 152.18 329.251 152.636 329.274 153.146H328.071C328.048 152.841 327.961 152.565 327.811 152.319C327.665 152.073 327.464 151.877 327.209 151.731C326.959 151.581 326.665 151.506 326.327 151.506C325.94 151.506 325.614 151.583 325.35 151.738C325.09 151.889 324.883 152.094 324.728 152.354C324.577 152.609 324.468 152.894 324.4 153.208C324.336 153.518 324.304 153.835 324.304 154.158V154.445C324.304 154.769 324.336 155.088 324.4 155.402C324.463 155.717 324.571 156.002 324.721 156.257C324.876 156.512 325.083 156.717 325.343 156.872C325.607 157.022 325.935 157.098 326.327 157.098ZM330.781 154.384V154.227C330.781 153.693 330.858 153.199 331.013 152.743C331.168 152.283 331.391 151.884 331.683 151.547C331.975 151.205 332.328 150.941 332.742 150.754C333.157 150.562 333.622 150.467 334.137 150.467C334.657 150.467 335.124 150.562 335.538 150.754C335.958 150.941 336.313 151.205 336.605 151.547C336.901 151.884 337.127 152.283 337.282 152.743C337.436 153.199 337.514 153.693 337.514 154.227V154.384C337.514 154.917 337.436 155.411 337.282 155.867C337.127 156.323 336.901 156.722 336.605 157.063C336.313 157.401 335.96 157.665 335.545 157.856C335.135 158.043 334.67 158.137 334.151 158.137C333.631 158.137 333.164 158.043 332.749 157.856C332.335 157.665 331.979 157.401 331.683 157.063C331.391 156.722 331.168 156.323 331.013 155.867C330.858 155.411 330.781 154.917 330.781 154.384ZM332.045 154.227V154.384C332.045 154.753 332.088 155.102 332.175 155.43C332.262 155.753 332.392 156.04 332.565 156.291C332.742 156.542 332.963 156.74 333.228 156.886C333.492 157.027 333.8 157.098 334.151 157.098C334.497 157.098 334.8 157.027 335.06 156.886C335.324 156.74 335.543 156.542 335.716 156.291C335.889 156.04 336.019 155.753 336.106 155.43C336.197 155.102 336.242 154.753 336.242 154.384V154.227C336.242 153.862 336.197 153.518 336.106 153.194C336.019 152.866 335.887 152.577 335.709 152.326C335.536 152.071 335.317 151.87 335.053 151.725C334.793 151.579 334.488 151.506 334.137 151.506C333.791 151.506 333.485 151.579 333.221 151.725C332.961 151.87 332.742 152.071 332.565 152.326C332.392 152.577 332.262 152.866 332.175 153.194C332.088 153.518 332.045 153.862 332.045 154.227ZM340.778 152.073V158H339.506V150.604H340.709L340.778 152.073ZM340.518 154.021L339.93 154.001C339.935 153.495 340.001 153.028 340.128 152.6C340.256 152.167 340.445 151.791 340.696 151.472C340.946 151.153 341.258 150.907 341.632 150.733C342.006 150.556 342.439 150.467 342.931 150.467C343.277 150.467 343.596 150.517 343.888 150.617C344.18 150.713 344.433 150.866 344.647 151.075C344.861 151.285 345.027 151.554 345.146 151.882C345.264 152.21 345.324 152.606 345.324 153.071V158H344.059V153.133C344.059 152.745 343.993 152.436 343.861 152.203C343.733 151.971 343.551 151.802 343.314 151.697C343.077 151.588 342.799 151.533 342.48 151.533C342.106 151.533 341.794 151.599 341.543 151.731C341.293 151.864 341.092 152.046 340.942 152.278C340.791 152.511 340.682 152.777 340.614 153.078C340.55 153.374 340.518 153.689 340.518 154.021ZM345.31 153.324L344.462 153.584C344.467 153.178 344.533 152.789 344.661 152.415C344.793 152.041 344.982 151.709 345.228 151.417C345.479 151.125 345.786 150.895 346.151 150.727C346.515 150.553 346.932 150.467 347.402 150.467C347.798 150.467 348.149 150.519 348.454 150.624C348.764 150.729 349.024 150.891 349.234 151.109C349.448 151.324 349.61 151.599 349.719 151.937C349.828 152.274 349.883 152.675 349.883 153.14V158H348.612V153.126C348.612 152.711 348.546 152.39 348.413 152.162C348.286 151.93 348.104 151.768 347.867 151.677C347.634 151.581 347.356 151.533 347.033 151.533C346.755 151.533 346.508 151.581 346.294 151.677C346.08 151.772 345.9 151.905 345.754 152.073C345.608 152.237 345.497 152.426 345.419 152.641C345.346 152.855 345.31 153.083 345.31 153.324Z" fill="white" fill-opacity="0.6"/>
<path d="M222.355 182.661V183.851H215.533V182.661H222.355ZM219.58 179.756V187.002H218.315V179.756H219.58ZM226.036 182.401H226.939C227.381 182.401 227.745 182.328 228.032 182.183C228.324 182.032 228.54 181.829 228.682 181.574C228.828 181.314 228.9 181.023 228.9 180.699C228.9 180.316 228.837 179.995 228.709 179.735C228.581 179.476 228.39 179.28 228.135 179.147C227.88 179.015 227.556 178.949 227.164 178.949C226.809 178.949 226.494 179.02 226.221 179.161C225.952 179.298 225.74 179.494 225.585 179.749C225.435 180.004 225.359 180.305 225.359 180.651H224.095C224.095 180.146 224.222 179.685 224.478 179.271C224.733 178.856 225.091 178.525 225.551 178.279C226.016 178.033 226.553 177.91 227.164 177.91C227.766 177.91 228.292 178.017 228.743 178.231C229.194 178.441 229.545 178.756 229.796 179.175C230.047 179.59 230.172 180.107 230.172 180.727C230.172 180.977 230.113 181.246 229.994 181.533C229.88 181.816 229.7 182.08 229.454 182.326C229.213 182.572 228.898 182.775 228.511 182.935C228.123 183.09 227.659 183.167 227.116 183.167H226.036V182.401ZM226.036 183.44V182.682H227.116C227.75 182.682 228.274 182.757 228.689 182.907C229.103 183.058 229.429 183.258 229.666 183.509C229.908 183.759 230.076 184.035 230.172 184.336C230.272 184.632 230.322 184.928 230.322 185.225C230.322 185.689 230.243 186.102 230.083 186.462C229.928 186.822 229.707 187.127 229.42 187.378C229.137 187.629 228.805 187.818 228.422 187.945C228.039 188.073 227.622 188.137 227.171 188.137C226.738 188.137 226.33 188.075 225.947 187.952C225.569 187.829 225.234 187.651 224.942 187.419C224.651 187.182 224.423 186.893 224.259 186.551C224.095 186.204 224.013 185.81 224.013 185.368H225.277C225.277 185.715 225.353 186.018 225.503 186.277C225.658 186.537 225.877 186.74 226.159 186.886C226.446 187.027 226.784 187.098 227.171 187.098C227.558 187.098 227.891 187.032 228.169 186.899C228.452 186.763 228.668 186.558 228.818 186.284C228.973 186.011 229.051 185.667 229.051 185.252C229.051 184.837 228.964 184.498 228.791 184.233C228.618 183.965 228.372 183.766 228.053 183.639C227.738 183.507 227.367 183.44 226.939 183.44H226.036ZM238.761 185.307C238.761 185.913 238.62 186.428 238.337 186.852C238.059 187.271 237.681 187.59 237.202 187.809C236.728 188.027 236.193 188.137 235.596 188.137C234.999 188.137 234.461 188.027 233.983 187.809C233.504 187.59 233.126 187.271 232.848 186.852C232.57 186.428 232.431 185.913 232.431 185.307C232.431 184.91 232.506 184.548 232.656 184.22C232.811 183.887 233.028 183.598 233.306 183.352C233.588 183.105 233.921 182.916 234.304 182.784C234.691 182.647 235.117 182.579 235.582 182.579C236.193 182.579 236.737 182.698 237.216 182.935C237.694 183.167 238.07 183.488 238.344 183.898C238.622 184.309 238.761 184.778 238.761 185.307ZM237.489 185.279C237.489 184.91 237.41 184.584 237.25 184.302C237.091 184.015 236.867 183.791 236.58 183.632C236.293 183.472 235.96 183.393 235.582 183.393C235.195 183.393 234.86 183.472 234.577 183.632C234.299 183.791 234.083 184.015 233.928 184.302C233.773 184.584 233.695 184.91 233.695 185.279C233.695 185.662 233.771 185.99 233.921 186.264C234.076 186.533 234.295 186.74 234.577 186.886C234.864 187.027 235.204 187.098 235.596 187.098C235.988 187.098 236.325 187.027 236.608 186.886C236.89 186.74 237.107 186.533 237.257 186.264C237.412 185.99 237.489 185.662 237.489 185.279ZM238.528 180.638C238.528 181.121 238.401 181.556 238.146 181.943C237.89 182.331 237.542 182.636 237.1 182.859C236.658 183.083 236.156 183.194 235.596 183.194C235.026 183.194 234.518 183.083 234.071 182.859C233.629 182.636 233.283 182.331 233.032 181.943C232.782 181.556 232.656 181.121 232.656 180.638C232.656 180.059 232.782 179.567 233.032 179.161C233.288 178.756 233.636 178.446 234.078 178.231C234.52 178.017 235.024 177.91 235.589 177.91C236.159 177.91 236.665 178.017 237.107 178.231C237.549 178.446 237.895 178.756 238.146 179.161C238.401 179.567 238.528 180.059 238.528 180.638ZM237.264 180.658C237.264 180.326 237.193 180.032 237.052 179.776C236.911 179.521 236.715 179.321 236.464 179.175C236.213 179.024 235.922 178.949 235.589 178.949C235.256 178.949 234.965 179.02 234.714 179.161C234.468 179.298 234.274 179.494 234.133 179.749C233.996 180.004 233.928 180.307 233.928 180.658C233.928 181 233.996 181.299 234.133 181.554C234.274 181.809 234.47 182.007 234.721 182.148C234.972 182.29 235.263 182.36 235.596 182.36C235.929 182.36 236.218 182.29 236.464 182.148C236.715 182.007 236.911 181.809 237.052 181.554C237.193 181.299 237.264 181 237.264 180.658ZM250.921 182.23V183.748C250.921 184.564 250.848 185.252 250.702 185.812C250.557 186.373 250.347 186.824 250.074 187.166C249.8 187.508 249.47 187.756 249.082 187.911C248.7 188.062 248.267 188.137 247.784 188.137C247.401 188.137 247.048 188.089 246.724 187.993C246.4 187.897 246.109 187.745 245.849 187.535C245.594 187.321 245.375 187.043 245.193 186.701C245.01 186.359 244.871 185.945 244.776 185.457C244.68 184.969 244.632 184.4 244.632 183.748V182.23C244.632 181.415 244.705 180.731 244.851 180.18C245.001 179.628 245.213 179.186 245.487 178.854C245.76 178.516 246.088 178.275 246.471 178.129C246.858 177.983 247.291 177.91 247.77 177.91C248.157 177.91 248.513 177.958 248.836 178.054C249.164 178.145 249.456 178.293 249.711 178.498C249.966 178.699 250.183 178.967 250.361 179.305C250.543 179.637 250.682 180.045 250.778 180.528C250.873 181.011 250.921 181.579 250.921 182.23ZM249.65 183.953V182.019C249.65 181.572 249.622 181.18 249.568 180.843C249.518 180.501 249.442 180.209 249.342 179.968C249.242 179.726 249.114 179.53 248.959 179.38C248.809 179.229 248.633 179.12 248.433 179.052C248.237 178.979 248.016 178.942 247.77 178.942C247.469 178.942 247.202 178.999 246.97 179.113C246.738 179.223 246.542 179.398 246.382 179.64C246.227 179.881 246.109 180.198 246.027 180.59C245.945 180.982 245.904 181.458 245.904 182.019V183.953C245.904 184.4 245.929 184.794 245.979 185.136C246.034 185.478 246.113 185.774 246.218 186.024C246.323 186.271 246.451 186.473 246.601 186.633C246.751 186.792 246.924 186.911 247.12 186.988C247.321 187.061 247.542 187.098 247.784 187.098C248.093 187.098 248.365 187.038 248.597 186.92C248.829 186.801 249.023 186.617 249.178 186.366C249.338 186.111 249.456 185.785 249.534 185.389C249.611 184.988 249.65 184.509 249.65 183.953ZM254.226 186.94H254.356C255.085 186.94 255.677 186.838 256.133 186.633C256.589 186.428 256.94 186.152 257.186 185.806C257.432 185.459 257.601 185.07 257.692 184.637C257.783 184.199 257.829 183.75 257.829 183.29V181.766C257.829 181.314 257.776 180.913 257.671 180.562C257.571 180.212 257.43 179.918 257.247 179.681C257.07 179.444 256.867 179.264 256.639 179.141C256.411 179.018 256.17 178.956 255.914 178.956C255.623 178.956 255.361 179.015 255.128 179.134C254.9 179.248 254.707 179.41 254.547 179.619C254.392 179.829 254.274 180.075 254.192 180.357C254.11 180.64 254.069 180.948 254.069 181.28C254.069 181.576 254.105 181.864 254.178 182.142C254.251 182.42 254.363 182.67 254.513 182.894C254.663 183.117 254.85 183.295 255.074 183.427C255.301 183.554 255.568 183.618 255.873 183.618C256.156 183.618 256.42 183.563 256.666 183.454C256.917 183.34 257.138 183.188 257.329 182.996C257.525 182.8 257.68 182.579 257.794 182.333C257.913 182.087 257.981 181.829 257.999 181.561H258.601C258.601 181.939 258.526 182.312 258.375 182.682C258.23 183.046 258.024 183.379 257.76 183.68C257.496 183.98 257.186 184.222 256.83 184.404C256.475 184.582 256.088 184.671 255.668 184.671C255.176 184.671 254.75 184.575 254.39 184.384C254.03 184.192 253.734 183.937 253.501 183.618C253.274 183.299 253.103 182.944 252.989 182.552C252.879 182.155 252.825 181.754 252.825 181.349C252.825 180.875 252.891 180.43 253.023 180.016C253.155 179.601 253.351 179.236 253.611 178.922C253.871 178.603 254.192 178.354 254.575 178.177C254.962 177.999 255.409 177.91 255.914 177.91C256.484 177.91 256.969 178.024 257.371 178.252C257.772 178.48 258.097 178.785 258.348 179.168C258.603 179.551 258.79 179.981 258.909 180.46C259.027 180.938 259.086 181.431 259.086 181.937V182.395C259.086 182.91 259.052 183.434 258.984 183.967C258.92 184.495 258.795 185.001 258.608 185.484C258.426 185.967 258.159 186.4 257.808 186.783C257.457 187.161 256.999 187.462 256.434 187.686C255.873 187.904 255.181 188.014 254.356 188.014H254.226V186.94ZM266.117 178.033H266.226V179.106H266.117C265.447 179.106 264.886 179.216 264.435 179.435C263.984 179.649 263.626 179.938 263.362 180.303C263.097 180.663 262.906 181.068 262.788 181.52C262.674 181.971 262.617 182.429 262.617 182.894V184.356C262.617 184.799 262.669 185.19 262.774 185.532C262.879 185.869 263.022 186.154 263.205 186.387C263.387 186.619 263.592 186.795 263.82 186.913C264.052 187.032 264.294 187.091 264.544 187.091C264.836 187.091 265.096 187.036 265.324 186.927C265.552 186.813 265.743 186.656 265.898 186.455C266.057 186.25 266.178 186.008 266.26 185.73C266.342 185.452 266.383 185.147 266.383 184.814C266.383 184.518 266.347 184.233 266.274 183.96C266.201 183.682 266.089 183.436 265.939 183.222C265.789 183.003 265.599 182.832 265.372 182.709C265.148 182.581 264.882 182.518 264.572 182.518C264.221 182.518 263.893 182.604 263.587 182.777C263.287 182.946 263.038 183.169 262.842 183.447C262.651 183.721 262.541 184.019 262.514 184.343L261.844 184.336C261.908 183.826 262.027 183.39 262.2 183.03C262.377 182.666 262.596 182.369 262.856 182.142C263.12 181.909 263.414 181.741 263.738 181.636C264.066 181.526 264.412 181.472 264.777 181.472C265.274 181.472 265.702 181.565 266.062 181.752C266.422 181.939 266.718 182.189 266.951 182.504C267.183 182.814 267.354 183.165 267.463 183.557C267.577 183.944 267.634 184.343 267.634 184.753C267.634 185.222 267.568 185.662 267.436 186.072C267.304 186.482 267.106 186.842 266.841 187.152C266.582 187.462 266.26 187.704 265.877 187.877C265.495 188.05 265.05 188.137 264.544 188.137C264.007 188.137 263.537 188.027 263.136 187.809C262.735 187.585 262.402 187.289 262.138 186.92C261.874 186.551 261.676 186.141 261.543 185.689C261.411 185.238 261.345 184.78 261.345 184.315V183.721C261.345 183.019 261.416 182.331 261.557 181.656C261.698 180.982 261.942 180.371 262.289 179.824C262.639 179.277 263.125 178.842 263.745 178.519C264.364 178.195 265.155 178.033 266.117 178.033ZM277.607 177.992V188H276.342V179.571L273.793 180.501V179.359L277.409 177.992H277.607ZM285.902 177.992V188H284.637V179.571L282.088 180.501V179.359L285.704 177.992H285.902ZM294.197 177.992V188H292.932V179.571L290.383 180.501V179.359L293.999 177.992H294.197ZM306.385 177.992V188H305.12V179.571L302.57 180.501V179.359L306.186 177.992H306.385ZM314.68 177.992V188H313.415V179.571L310.865 180.501V179.359L314.481 177.992H314.68ZM326.867 177.992V188H325.603V179.571L323.053 180.501V179.359L326.669 177.992H326.867ZM335.162 177.992V188H333.898V179.571L331.348 180.501V179.359L334.964 177.992H335.162Z" fill="white" fill-opacity="0.6"/>
</svg>
